<?xml version="1.0" encoding="UTF-8"?>
<svg width="3436px" height="1764px" viewBox="0 0 3436 1764" version="1.1" xmlns="http://www.w3.org/2000/svg" xmlns:xlink="http://www.w3.org/1999/xlink">
    <!-- Generator: Sketch 46.2 (44496) - http://www.bohemiancoding.com/sketch -->
    <title>horizontal color2</title>
    <desc>Created with Sketch.</desc>
    <defs>
        <linearGradient x1="100%" y1="50%" x2="0%" y2="50%" id="linearGradient-1">
            <stop stop-color="#FEE140" offset="0%"></stop>
            <stop stop-color="#FA709A" offset="100%"></stop>
        </linearGradient>
    </defs>
    <g id="Page-1" stroke="none" stroke-width="1" fill="none" fill-rule="evenodd">
        <g id="horizontal-color2">
            <g id="Group" transform="translate(750.500000, 578.750000)">
                <path d="M303.25,606.5 C135.76965,606.5 0,470.73035 0,303.25 C0,135.76965 135.76965,0 303.25,0 C470.73035,0 606.5,135.76965 606.5,303.25 C606.5,470.73035 470.73035,606.5 303.25,606.5 Z M390.5,190.5 L390.5,416 L392,416 L391.999996,415.977399 C392.748209,415.992443 393.498234,416 394.25,416 C455.691678,416 505.5,365.520106 505.5,303.25 C505.5,240.979894 455.691678,190.5 394.25,190.5 C393.498234,190.5 392.748209,190.507557 392,190.5226 L392,190.5 L390.5,190.5 Z M363.5,190.5 L363.5,416 L332.5,416 L332.5,190.5 L363.5,190.5 Z M233.25,415.98515 L233.25,416 L159,416 L159,190.5 L213.25,190.500145 C242.25651,190.567585 265.75,214.102693 265.75,243.125 C265.75,253.410692 262.799126,263.00717 257.697775,271.114037 C287.473813,280.780757 309,308.751523 309,341.75 C309,382.757143 275.757143,416 234.75,416 C234.248825,416 233.748809,415.995035 233.25,415.98515 Z M101,190.5 L132,190.5 L132,416 L101,416 L101,190.5 Z" id="BD-Copy-4" fill="url(#linearGradient-1)"></path>
                <path d="M879.36113,187.395275 C879.36113,195.872252 877.679048,202.997191 874.314833,208.770306 C870.950618,214.54342 866.489443,219.183765 860.931175,222.691479 C855.372907,226.199194 849.046815,228.720327 841.95271,230.254952 C834.858605,231.789577 827.581771,232.556878 820.12199,232.556878 L758.25,232.556878 L758.25,77.3412698 L820.12199,77.3412698 C826.119069,77.3412698 832.262326,77.9624184 838.551945,79.2047341 C844.841564,80.4470498 850.546017,82.5662624 855.665474,85.5624355 C860.784931,88.5586087 864.95357,92.6143432 868.171515,97.7297608 C871.389459,102.845178 872.998407,109.348969 872.998407,117.241327 C872.998407,125.86446 870.658119,132.989399 865.977472,138.616358 C861.296826,144.243318 855.153569,148.299052 847.547518,150.783683 L847.547518,151.222146 C851.935624,151.95292 856.067696,153.304831 859.943856,155.277921 C863.820017,157.25101 867.184181,159.772143 870.03645,162.841393 C872.88872,165.910644 875.155874,169.491382 876.837981,173.583716 C878.520089,177.67605 879.36113,182.279857 879.36113,187.395275 Z M836.700235,122.282634 C836.700235,117.010157 834.687646,113.1657 830.662407,110.749148 C826.637167,108.332596 820.672584,107.124339 812.768478,107.124339 L794.325656,107.124339 L794.325656,139.198413 L814.524937,139.198413 C821.550809,139.198413 827.003097,137.770472 830.881964,134.914547 C834.760831,132.058622 836.700235,127.848026 836.700235,122.282634 Z M841.567586,183.788164 C841.567586,177.358232 839.161771,172.901187 834.350069,170.416895 C829.538367,167.932603 823.12286,166.690476 815.103356,166.690476 L794.325656,166.690476 L794.325656,202.201058 L815.322069,202.201058 C818.238252,202.201058 821.263747,201.945326 824.398644,201.433854 C827.53354,200.922382 830.376776,200.009054 832.928436,198.69384 C835.480097,197.378627 837.557846,195.515436 839.161747,193.104212 C840.765647,190.692987 841.567586,187.587669 841.567586,183.788164 Z M966.400807,185.018519 L961.804962,185.018519 C957.865647,185.018519 953.889916,185.201011 949.87765,185.566001 C945.865384,185.930992 942.290874,186.624463 939.154011,187.646436 C936.017149,188.66841 933.427453,190.164848 931.384845,192.135796 C929.342237,194.106744 928.320948,196.698137 928.320948,199.910053 C928.320948,201.953999 928.795118,203.705927 929.743472,205.165889 C930.691825,206.62585 931.895487,207.793802 933.354493,208.669779 C934.813498,209.545756 936.49133,210.16623 938.388037,210.531221 C940.284745,210.896211 942.108475,211.078704 943.859281,211.078704 C951.15431,211.078704 956.734923,209.071287 960.601288,205.056392 C964.467653,201.041497 966.400807,195.603222 966.400807,188.741402 L966.400807,185.018519 Z M900.37422,138.155265 C906.810205,132.011768 914.306553,127.404215 922.863488,124.332467 C931.420423,121.260719 940.160068,119.724868 949.082684,119.724868 C958.297845,119.724868 966.086733,120.858472 972.449582,123.125715 C978.812432,125.392958 983.968456,128.903474 987.917811,133.65737 C991.867166,138.411266 994.756002,144.408399 996.584407,151.648948 C998.412812,158.889498 999.327001,167.48295 999.327001,177.429563 L999.327001,232.501345 L966.415876,232.501345 L966.415876,220.872642 L965.757654,220.872642 C962.978478,225.407128 958.77321,228.917645 953.141723,231.404298 C947.510235,233.890951 941.403454,235.134259 934.821197,235.134259 C930.433025,235.134259 925.898649,234.549173 921.217932,233.378983 C916.537215,232.208794 912.258812,230.307264 908.382593,227.674337 C904.506375,225.04141 901.324998,221.530893 898.838367,217.142681 C896.351737,212.754469 895.10844,207.342423 895.10844,200.906379 C895.10844,193.007598 897.265925,186.644786 901.580961,181.817753 C905.895997,176.99072 911.454264,173.260796 918.255931,170.627869 C925.057597,167.994942 932.62708,166.239684 940.964607,165.362042 C949.302133,164.484399 957.420129,164.045585 965.318839,164.045585 L965.318839,162.290309 C965.318839,156.878181 963.417326,152.892282 959.614244,150.332492 C955.811162,147.772701 951.130515,146.492825 945.572164,146.492825 C940.45263,146.492825 935.516011,147.589862 930.762158,149.783968 C926.008305,151.978074 921.949307,154.610961 918.585042,157.682709 L900.37422,138.155265 Z M1147.35171,177.548379 C1147.35171,185.152605 1146.18304,192.464251 1143.84565,199.483536 C1141.50826,206.502821 1138.1118,212.681162 1133.65615,218.018744 C1129.20051,223.356325 1123.75886,227.633638 1117.33105,230.850811 C1110.90323,234.067983 1103.59901,235.676545 1095.41815,235.676545 C1088.69816,235.676545 1082.34349,234.323891 1076.35393,231.618541 C1070.36438,228.913191 1065.68967,225.22081 1062.32968,220.541287 L1061.89142,220.541287 L1061.89142,285.25 L1025.95427,285.25 L1025.95427,123.368541 L1060.13839,123.368541 L1060.13839,136.748987 L1060.79578,136.748987 C1064.15577,132.361933 1068.79395,128.523319 1074.71046,125.233029 C1080.62698,121.942739 1087.60251,120.297619 1095.63728,120.297619 C1103.52596,120.297619 1110.6841,121.833065 1117.11192,124.904002 C1123.53973,127.974939 1128.98138,132.142578 1133.43703,137.407042 C1137.89267,142.671506 1141.32566,148.77673 1143.73609,155.722898 C1146.14652,162.669065 1147.35171,169.944153 1147.35171,177.548379 Z M1112.42132,177.639871 C1112.42132,174.131751 1111.87467,170.696769 1110.78135,167.334821 C1109.68803,163.972874 1108.08453,161.012942 1105.97078,158.454939 C1103.85703,155.896935 1101.19667,153.81402 1097.98961,152.206132 C1094.78254,150.598244 1091.06532,149.794312 1086.83783,149.794312 C1082.75611,149.794312 1079.11178,150.598244 1075.90471,152.206132 C1072.69765,153.81402 1069.9644,155.933477 1067.70488,158.564567 C1065.44536,161.195656 1063.69607,164.19213 1062.45698,167.554078 C1061.21789,170.916026 1060.59835,174.351008 1060.59835,177.859127 C1060.59835,181.367246 1061.21789,184.802228 1062.45698,188.164176 C1063.69607,191.526124 1065.44536,194.522598 1067.70488,197.153687 C1069.9644,199.784777 1072.69765,201.904234 1075.90471,203.512122 C1079.11178,205.12001 1082.75611,205.923942 1086.83783,205.923942 C1091.06532,205.923942 1094.78254,205.12001 1097.98961,203.512122 C1101.19667,201.904234 1103.85703,199.784777 1105.97078,197.153687 C1108.08453,194.522598 1109.68803,191.489582 1110.78135,188.054548 C1111.87467,184.619514 1112.42132,181.14799 1112.42132,177.639871 Z M1209.06096,150.241523 L1209.06096,191.920127 C1209.06096,197.038578 1210.04621,200.877358 1212.01674,203.436584 C1213.98727,205.995809 1217.52687,207.275403 1222.63565,207.275403 C1224.38723,207.275403 1226.24825,207.129163 1228.21878,206.83668 C1230.18931,206.544198 1231.83139,206.10548 1233.14508,205.520514 L1233.58297,231.843843 C1231.10157,232.721292 1227.96336,233.489048 1224.16827,234.147134 C1220.37318,234.805221 1216.57814,235.134259 1212.78305,235.134259 C1205.4848,235.134259 1199.35435,234.220264 1194.39154,232.392246 C1189.42873,230.564228 1185.45124,227.931921 1182.45895,224.495247 C1179.46667,221.058573 1177.31372,216.963874 1176.00003,212.211027 C1174.68634,207.45818 1174.02951,202.157007 1174.02951,196.307349 L1174.02951,150.241523 L1156.51379,150.241523 L1156.51379,123.26011 L1173.81056,123.26011 L1173.81056,94.5238095 L1209.06096,94.5238095 L1209.06096,123.26011 L1234.67771,123.26011 L1234.67771,150.241523 L1209.06096,150.241523 Z M1290.79539,88.5099206 C1290.79539,91.2909604 1290.24714,93.8889981 1289.15061,96.3041116 C1288.05408,98.719225 1286.59206,100.804974 1284.76451,102.56142 C1282.93696,104.317866 1280.74393,105.708365 1278.18536,106.732959 C1275.62679,107.757552 1272.95861,108.269841 1270.18073,108.269841 C1264.33257,108.269841 1259.43481,106.330461 1255.4873,102.451642 C1251.5398,98.5728238 1249.56607,93.9256297 1249.56607,88.5099206 C1249.56607,85.8752514 1250.07778,83.3503979 1251.10121,80.9352844 C1252.12463,78.5201709 1253.58665,76.4344224 1255.4873,74.6779762 C1257.38796,72.92153 1259.58098,71.4944389 1262.06645,70.3966601 C1264.55192,69.2988812 1267.25665,68.75 1270.18073,68.75 C1272.95861,68.75 1275.62679,69.2622891 1278.18536,70.2868827 C1280.74393,71.3114763 1282.93696,72.7019753 1284.76451,74.4584215 C1286.59206,76.2148677 1288.05408,78.3006162 1289.15061,80.7157297 C1290.24714,83.1308432 1290.79539,85.7288809 1290.79539,88.5099206 Z M1252.14291,232.556878 L1252.14291,123.447751 L1288.21856,123.447751 L1288.21856,232.556878 L1252.14291,232.556878 Z M1380.71398,155.482922 C1377.78953,152.704163 1374.35335,150.364191 1370.40533,148.462936 C1366.45732,146.56168 1362.29004,145.611066 1357.90336,145.611066 C1354.54024,145.611066 1351.43306,146.269183 1348.58172,147.585437 C1345.73038,148.901691 1344.30473,151.168539 1344.30473,154.386049 C1344.30473,157.457308 1345.8766,159.651032 1349.02038,160.967286 C1352.16417,162.28354 1357.24533,163.746022 1364.26402,165.354777 C1368.35825,166.23228 1372.48898,167.47539 1376.65632,169.084144 C1380.82367,170.692899 1384.58884,172.813499 1387.95196,175.446007 C1391.31508,178.078515 1394.02016,181.295976 1396.06728,185.098488 C1398.11439,188.900999 1399.13794,193.434695 1399.13794,198.69971 C1399.13794,205.573481 1397.74884,211.386849 1394.97061,216.139988 C1392.19238,220.893128 1388.57343,224.732144 1384.11364,227.657153 C1379.65385,230.582162 1374.6458,232.702761 1369.08934,234.019015 C1363.53288,235.335269 1357.9765,235.993386 1352.42004,235.993386 C1343.50046,235.993386 1334.76379,234.567466 1326.20977,231.715582 C1317.65574,228.863699 1310.5275,224.659062 1304.82482,219.101545 L1325.00344,197.822212 C1328.22033,201.332223 1332.16829,204.257188 1336.84741,206.597195 C1341.52653,208.937202 1346.49803,210.107188 1351.76204,210.107188 C1354.6865,210.107188 1357.57435,209.412509 1360.42569,208.023129 C1363.27703,206.63375 1364.70268,204.184092 1364.70268,200.674082 C1364.70268,197.310321 1362.94804,194.824101 1359.43869,193.215346 C1355.92935,191.606592 1350.44608,189.924737 1342.98873,188.169731 C1339.18694,187.292229 1335.38521,186.122243 1331.58342,184.659738 C1327.78163,183.197234 1324.38201,181.222883 1321.38444,178.736625 C1318.38688,176.250368 1315.93769,173.179155 1314.03679,169.522894 C1312.1359,165.866633 1311.18547,161.479185 1311.18547,156.36042 C1311.18547,149.77915 1312.57456,144.185155 1315.35279,139.578266 C1318.13102,134.971377 1321.71342,131.205484 1326.1001,128.280476 C1330.48678,125.355467 1335.34861,123.198305 1340.68573,121.808926 C1346.02286,120.419547 1351.32335,119.724868 1356.58737,119.724868 C1364.77583,119.724868 1372.7814,121.00454 1380.60431,123.563923 C1388.42722,126.123305 1395.0437,129.962322 1400.45393,135.081087 L1380.71398,155.482922 Z M1459.01372,150.241523 L1459.01372,191.920127 C1459.01372,197.038578 1459.99897,200.877358 1461.9695,203.436584 C1463.94002,205.995809 1467.47962,207.275403 1472.5884,207.275403 C1474.33998,207.275403 1476.20101,207.129163 1478.17154,206.83668 C1480.14207,206.544198 1481.78415,206.10548 1483.09784,205.520514 L1483.53573,231.843843 C1481.05432,232.721292 1477.91612,233.489048 1474.12103,234.147134 C1470.32594,234.805221 1466.5309,235.134259 1462.73581,235.134259 C1455.43755,235.134259 1449.30711,234.220264 1444.3443,232.392246 C1439.38148,230.564228 1435.40399,227.931921 1432.41171,224.495247 C1429.41943,221.058573 1427.26647,216.963874 1425.95279,212.211027 C1424.6391,207.45818 1423.98227,202.157007 1423.98227,196.307349 L1423.98227,150.241523 L1406.46654,150.241523 L1406.46654,123.26011 L1423.76332,123.26011 L1423.76332,94.5238095 L1459.01372,94.5238095 L1459.01372,123.26011 L1484.63046,123.26011 L1484.63046,150.241523 L1459.01372,150.241523 Z M1576.82381,165.544974 C1576.82381,159.823461 1575.02859,154.908902 1571.4381,150.801149 C1567.84762,146.693396 1562.46197,144.63955 1555.281,144.63955 C1551.76379,144.63955 1548.53973,145.189687 1545.60872,146.289978 C1542.67771,147.390269 1540.11311,148.893978 1537.91486,150.801149 C1535.7166,152.70832 1533.95802,154.945544 1532.63907,157.51289 C1531.32011,160.080235 1530.58737,162.75757 1530.44082,165.544974 L1576.82381,165.544974 Z M1609.75,179.175374 L1609.75,183.562866 C1609.75,185.02537 1609.677,186.414728 1609.53099,187.730982 L1530.46785,187.730982 C1530.75987,190.802242 1531.67241,193.580958 1533.2055,196.067216 C1534.73858,198.553473 1536.70967,200.710635 1539.1188,202.538765 C1541.52794,204.366896 1544.22906,205.792816 1547.22223,206.816569 C1550.2154,207.840322 1553.31803,208.352191 1556.53022,208.352191 C1562.22454,208.352191 1567.04275,207.291891 1570.98497,205.17126 C1574.9272,203.050629 1578.13933,200.308474 1580.62148,196.944714 L1605.58878,212.739683 C1600.47849,220.198455 1593.7257,225.938699 1585.33022,229.960586 C1576.93474,233.982473 1567.18883,235.993386 1556.09219,235.993386 C1547.91572,235.993386 1540.1774,234.713714 1532.87698,232.154331 C1525.57656,229.594949 1519.18879,225.865618 1513.71348,220.966229 C1508.23816,216.066839 1503.93098,210.034099 1500.7918,202.867827 C1497.65262,195.701556 1496.08305,187.511654 1496.08305,178.297876 C1496.08305,169.376599 1497.61612,161.296384 1500.68229,154.056987 C1503.74847,146.81759 1507.90965,140.675164 1513.16595,135.629524 C1518.42225,130.583883 1524.62751,126.671743 1531.78192,123.892984 C1538.93633,121.114226 1546.67466,119.724868 1554.99714,119.724868 C1563.0276,119.724868 1570.40091,121.077664 1577.11729,123.783297 C1583.83368,126.48893 1589.60092,130.401071 1594.4192,135.519836 C1599.23747,140.638602 1602.99713,146.854152 1605.69829,154.166674 C1608.39944,161.479196 1609.75,169.815346 1609.75,179.175374 Z M947.509309,431.257772 C947.509309,449.006565 944.216631,464.321827 937.631175,477.204016 C931.04572,490.086204 922.360685,500.678067 911.575809,508.979922 C900.790933,517.281777 888.62234,523.388797 875.069664,527.301166 C861.516988,531.213534 847.773636,533.169689 833.839194,533.169689 L758.25,533.169689 L758.25,330.490933 L831.548613,330.490933 C845.86482,330.490933 859.989932,332.160821 873.924373,335.500648 C887.858815,338.840474 900.266008,344.374961 911.146325,352.104275 C922.026642,359.833588 930.807118,370.186895 937.488014,383.164508 C944.168911,396.14212 947.509309,412.173048 947.509309,431.257772 Z M1118.73029,463.606218 L1118.73029,469.331606 C1118.73029,471.240079 1118.63485,473.0531 1118.44396,474.770725 L1015.08147,474.770725 C1015.46323,478.778517 1016.65623,482.404561 1018.6605,485.648964 C1020.66477,488.893367 1023.24165,491.708321 1026.39121,494.093912 C1029.54078,496.479502 1033.07206,498.340235 1036.98515,499.676166 C1040.89825,501.012096 1044.95445,501.680052 1049.15387,501.680052 C1056.5983,501.680052 1062.89733,500.29643 1068.05117,497.529145 C1073.205,494.76186 1077.40436,491.183528 1080.64937,486.794041 L1113.29016,507.40544 C1106.60926,517.13865 1097.78106,524.629292 1086.80531,529.877591 C1075.82955,535.12589 1063.08831,537.75 1048.58122,537.75 C1037.89179,537.75 1027.77516,536.080112 1018.23102,532.740285 C1008.68688,529.400458 1000.33588,524.533927 993.17778,518.140544 C986.019677,511.747161 980.38872,503.874831 976.284741,494.523316 C972.180762,485.171801 970.128803,474.484516 970.128803,462.46114 C970.128803,450.819458 972.133042,440.275306 976.141579,430.828368 C980.150117,421.381429 985.590194,413.365966 992.461974,406.781736 C999.333753,400.197506 1007.44615,395.092419 1016.7994,391.466321 C1026.15266,387.840224 1036.26929,386.027202 1047.14961,386.027202 C1057.64816,386.027202 1067.2876,387.792513 1076.0682,391.323187 C1084.84881,394.85386 1092.38857,399.958948 1098.6877,406.638601 C1104.98683,413.318254 1109.90199,421.429141 1113.43332,430.971503 C1116.96465,440.513865 1118.73029,451.391994 1118.73029,463.606218 Z M1306.84431,461.316062 C1306.84431,471.240119 1305.31727,480.782338 1302.26314,489.943005 C1299.20902,499.103673 1294.77106,507.166848 1288.94914,514.132772 C1283.12721,521.098696 1276.01694,526.680894 1267.61809,530.879534 C1259.21925,535.078173 1249.67526,537.177461 1238.98582,537.177461 C1229.44169,537.177461 1220.42261,535.221306 1211.92833,531.308938 C1203.43405,527.396569 1196.89641,521.814371 1192.31522,514.562176 L1191.74258,514.562176 L1191.74258,533.169689 L1148.50785,533.169689 L1148.50785,316.75 L1195.46477,316.75 L1195.46477,405.779793 L1196.03742,405.779793 C1200.04596,401.008612 1205.67691,396.619191 1212.93046,392.611399 C1220.184,388.603607 1229.05992,386.599741 1239.55847,386.599741 C1249.86614,386.599741 1259.17153,388.603607 1267.47493,392.611399 C1275.77833,396.619191 1282.84089,402.058256 1288.66281,408.928756 C1294.48474,415.799257 1298.97042,423.76701 1302.11998,432.832254 C1305.26955,441.897498 1306.84431,451.392006 1306.84431,461.316062 Z M1478.06528,463.606218 L1478.06528,469.331606 C1478.06528,471.240079 1477.96984,473.0531 1477.77896,474.770725 L1374.41646,474.770725 C1374.79823,478.778517 1375.99123,482.404561 1377.9955,485.648964 C1379.99977,488.893367 1382.57665,491.708321 1385.72621,494.093912 C1388.87578,496.479502 1392.40705,498.340235 1396.32015,499.676166 C1400.23325,501.012096 1404.28945,501.680052 1408.48887,501.680052 C1415.93329,501.680052 1422.23233,500.29643 1427.38616,497.529145 C1432.54,494.76186 1436.73936,491.183528 1439.98436,486.794041 L1472.62515,507.40544 C1465.94426,517.13865 1457.11606,524.629292 1446.1403,529.877591 C1435.16454,535.12589 1422.42331,537.75 1407.91622,537.75 C1397.22679,537.75 1387.11015,536.080112 1377.56601,532.740285 C1368.02188,529.400458 1359.67088,524.533927 1352.51278,518.140544 C1345.35467,511.747161 1339.72372,503.874831 1335.61974,494.523316 C1331.51576,485.171801 1329.4638,474.484516 1329.4638,462.46114 C1329.4638,450.819458 1331.46804,440.275306 1335.47658,430.828368 C1339.48511,421.381429 1344.92519,413.365966 1351.79697,406.781736 C1358.66875,400.197506 1366.78114,395.092419 1376.1344,391.466321 C1385.48766,387.840224 1395.60429,386.027202 1406.48461,386.027202 C1416.98316,386.027202 1426.62259,387.792513 1435.4032,391.323187 C1444.18381,394.85386 1451.72356,399.958948 1458.02269,406.638601 C1464.32183,413.318254 1469.23698,421.429141 1472.76831,430.971503 C1476.29964,440.513865 1478.06528,451.391994 1478.06528,463.606218 Z M1595.45759,533.169689 L1544.77847,533.169689 L1488.65922,390.607513 L1540.48363,390.607513 L1570.54752,483.072539 L1571.40649,483.072539 L1601.47037,390.607513 L1651.57684,390.607513 L1595.45759,533.169689 Z M1811.05859,463.606218 L1811.05859,469.331606 C1811.05859,471.240079 1810.96315,473.0531 1810.77227,474.770725 L1707.40977,474.770725 C1707.79154,478.778517 1708.98454,482.404561 1710.98881,485.648964 C1712.99307,488.893367 1715.56995,491.708321 1718.71952,494.093912 C1721.86908,496.479502 1725.40036,498.340235 1729.31346,499.676166 C1733.22655,501.012096 1737.28275,501.680052 1741.48217,501.680052 C1748.9266,501.680052 1755.22564,500.29643 1760.37947,497.529145 C1765.53331,494.76186 1769.73266,491.183528 1772.97767,486.794041 L1805.61846,507.40544 C1798.93756,517.13865 1790.10937,524.629292 1779.13361,529.877591 C1768.15785,535.12589 1755.41662,537.75 1740.90953,537.75 C1730.22009,537.75 1720.10346,536.080112 1710.55932,532.740285 C1701.01518,529.400458 1692.66419,524.533927 1685.50608,518.140544 C1678.34798,511.747161 1672.71702,503.874831 1668.61304,494.523316 C1664.50907,485.171801 1662.45711,474.484516 1662.45711,462.46114 C1662.45711,450.819458 1664.46135,440.275306 1668.46988,430.828368 C1672.47842,421.381429 1677.9185,413.365966 1684.79028,406.781736 C1691.66206,400.197506 1699.77445,395.092419 1709.12771,391.466321 C1718.48096,387.840224 1728.5976,386.027202 1739.47791,386.027202 C1749.97647,386.027202 1759.6159,387.792513 1768.39651,391.323187 C1777.17711,394.85386 1784.71687,399.958948 1791.016,406.638601 C1797.31513,413.318254 1802.23029,421.429141 1805.76162,430.971503 C1809.29295,440.513865 1811.05859,451.391994 1811.05859,463.606218 Z M896.543867,431.257772 C896.543867,419.806938 894.682788,410.31243 890.960574,402.773964 C887.238361,395.235498 882.275483,389.2239 876.071794,384.73899 C869.868104,380.254079 862.805548,377.057436 854.883913,375.148964 C846.962279,373.240491 838.802163,372.286269 830.403322,372.286269 L806.065892,372.286269 L806.065892,490.801813 L829.258031,490.801813 C838.038638,490.801813 846.485073,489.79988 854.597591,487.795984 C862.710108,485.792088 869.868104,482.500023 876.071794,477.919689 C882.275483,473.339355 887.238361,467.232335 890.960574,459.598446 C894.682788,451.964556 896.543867,442.517759 896.543867,431.257772 Z M1075.49556,445.571244 C1075.49556,438.128201 1073.15728,431.734914 1068.48065,426.391192 C1063.80402,421.047469 1056.78919,418.375648 1047.43593,418.375648 C1042.85475,418.375648 1038.65539,419.091314 1034.83773,420.522668 C1031.02008,421.954023 1027.67968,423.910178 1024.81644,426.391192 C1021.9532,428.872206 1019.66264,431.782583 1017.94469,435.122409 C1016.22675,438.462236 1015.27235,441.945146 1015.08147,445.571244 L1075.49556,445.571244 Z M1261.60532,461.316062 C1261.60532,456.735728 1260.88952,452.250886 1259.4579,447.861399 C1258.02628,443.471912 1255.87888,439.607314 1253.01564,436.267487 C1250.1524,432.92766 1246.62112,430.208128 1242.4217,428.108808 C1238.22228,426.009489 1233.35484,424.959845 1227.81924,424.959845 C1222.47452,424.959845 1217.70252,426.009489 1213.5031,428.108808 C1209.30368,430.208128 1205.72468,432.975371 1202.766,436.410622 C1199.80732,439.845872 1197.51676,443.758182 1195.89426,448.147668 C1194.27175,452.537155 1193.46051,457.021998 1193.46051,461.602332 C1193.46051,466.182665 1194.27175,470.667508 1195.89426,475.056995 C1197.51676,479.446481 1199.80732,483.358791 1202.766,486.794041 C1205.72468,490.229292 1209.30368,492.996535 1213.5031,495.095855 C1217.70252,497.195175 1222.47452,498.244819 1227.81924,498.244819 C1233.35484,498.244819 1238.22228,497.195175 1242.4217,495.095855 C1246.62112,492.996535 1250.1524,490.229292 1253.01564,486.794041 C1255.87888,483.358791 1258.02628,479.39877 1259.4579,474.91386 C1260.88952,470.42895 1261.60532,465.896396 1261.60532,461.316062 Z M1434.83055,445.571244 C1434.83055,438.128201 1432.49228,431.734914 1427.81565,426.391192 C1423.13902,421.047469 1416.12418,418.375648 1406.77093,418.375648 C1402.18974,418.375648 1397.99039,419.091314 1394.17273,420.522668 C1390.35508,421.954023 1387.01468,423.910178 1384.15144,426.391192 C1381.28819,428.872206 1378.99764,431.782583 1377.27969,435.122409 C1375.56175,438.462236 1374.60735,441.945146 1374.41646,445.571244 L1434.83055,445.571244 Z M1767.82386,445.571244 C1767.82386,438.128201 1765.48558,431.734914 1760.80896,426.391192 C1756.13233,421.047469 1749.11749,418.375648 1739.76424,418.375648 C1735.18305,418.375648 1730.98369,419.091314 1727.16604,420.522668 C1723.34838,421.954023 1720.00798,423.910178 1717.14474,426.391192 C1714.2815,428.872206 1711.99094,431.782583 1710.273,435.122409 C1708.55505,438.462236 1707.60065,441.945146 1707.40977,445.571244 L1767.82386,445.571244 Z M1932.74574,428.967617 C1930.64603,428.395075 1928.59407,428.013386 1926.5898,427.822539 C1924.58553,427.631692 1922.62901,427.536269 1920.72019,427.536269 C1914.42106,427.536269 1909.12414,428.681336 1904.82928,430.971503 C1900.53442,433.261669 1897.09858,436.028913 1894.52166,439.273316 C1891.94474,442.517719 1890.08366,446.04834 1888.93837,449.865285 C1887.79307,453.68223 1887.22043,457.022006 1887.22043,459.884715 L1887.22043,533.169689 L1840.26351,533.169689 L1840.26351,390.607513 L1885.50249,390.607513 L1885.50249,411.218912 L1886.07514,411.218912 C1889.70191,403.966717 1894.85567,398.050541 1901.53657,393.470207 C1908.21746,388.889873 1915.9481,386.599741 1924.72871,386.599741 C1926.63753,386.599741 1928.49861,386.695163 1930.312,386.88601 C1932.12538,387.076858 1933.6047,387.363124 1934.75,387.744819 L1932.74574,428.967617 Z" id="Baptiste-Debever" fill="#000000"></path>
            </g>
        </g>
    </g>
</svg>